<svg xmlns="http://www.w3.org/2000/svg" xmlns:xlink="http://www.w3.org/1999/xlink" width="0" height="0" style="position:absolute">
	
		<symbol id="icon-F" viewBox="0 0 90 90">
			<path d="M90 15.001C90 7.119 82.884 0 75 0H15C7.116 0 0 7.119 0 15.001v59.998C0 82.881 7.116 90 15.001 90H45V56H34V41h11v-5.844C45 25.077 52.568 16 61.875 16H74v15H61.875C60.548 31 59 32.611 59 35.024V41h15v15H59v34h16c7.884 0 15-7.119 15-15.001V15.001z"></path>
		</symbol>
	
		<symbol id="icon-I" viewBox="0 0 169.063 169.063">
			<path d="M122.406 0H46.654C20.929 0 0 20.93 0 46.655v75.752c0 25.726 20.929 46.655 46.654 46.655h75.752c25.727 0 46.656-20.93 46.656-46.655V46.655C169.063 20.93 148.133 0 122.406 0zm31.657 122.407c0 17.455-14.201 31.655-31.656 31.655H46.654C29.2 154.063 15 139.862 15 122.407V46.655C15 29.201 29.2 15 46.654 15h75.752c17.455 0 31.656 14.201 31.656 31.655v75.752z"></path><path d="M84.531 40.97c-24.021 0-43.563 19.542-43.563 43.563 0 24.02 19.542 43.561 43.563 43.561s43.563-19.541 43.563-43.561c0-24.021-19.542-43.563-43.563-43.563zm0 72.123c-15.749 0-28.563-12.812-28.563-28.561 0-15.75 12.813-28.563 28.563-28.563s28.563 12.813 28.563 28.563c0 15.749-12.814 28.561-28.563 28.561zm45.39-84.842c-2.89 0-5.729 1.17-7.77 3.22a11.053 11.053 0 0 0-3.23 7.78c0 2.891 1.18 5.73 3.23 7.78 2.04 2.04 4.88 3.22 7.77 3.22 2.9 0 5.73-1.18 7.78-3.22 2.05-2.05 3.22-4.89 3.22-7.78 0-2.9-1.17-5.74-3.22-7.78-2.04-2.05-4.88-3.22-7.78-3.22z"></path>
		</symbol>
	
		<symbol id="icon-T" viewBox="0 0 512 512">
			<path d="M512 97.248c-19.04 8.352-39.328 13.888-60.48 16.576 21.76-12.992 38.368-33.408 46.176-58.016-20.288 12.096-42.688 20.64-66.56 25.408C411.872 60.704 384.416 48 354.464 48c-58.112 0-104.896 47.168-104.896 104.992 0 8.32.704 16.32 2.432 23.936-87.264-4.256-164.48-46.08-216.352-109.792-9.056 15.712-14.368 33.696-14.368 53.056 0 36.352 18.72 68.576 46.624 87.232-16.864-.32-33.408-5.216-47.424-12.928v1.152c0 51.008 36.384 93.376 84.096 103.136-8.544 2.336-17.856 3.456-27.52 3.456-6.72 0-13.504-.384-19.872-1.792 13.6 41.568 52.192 72.128 98.08 73.12-35.712 27.936-81.056 44.768-130.144 44.768-8.608 0-16.864-.384-25.12-1.44C46.496 446.88 101.6 464 161.024 464c193.152 0 298.752-160 298.752-298.688 0-4.64-.16-9.12-.384-13.568 20.832-14.784 38.336-33.248 52.608-54.496z"></path>
		</symbol>
	
		<symbol id="icon-W" viewBox="0 0 90 90">
			<path d="M90 43.841c0 24.213-19.779 43.841-44.182 43.841a44.256 44.256 0 0 1-21.357-5.455L0 90l7.975-23.522a43.38 43.38 0 0 1-6.34-22.637C1.635 19.628 21.416 0 45.818 0 70.223 0 90 19.628 90 43.841zM45.818 6.982c-20.484 0-37.146 16.535-37.146 36.859 0 8.065 2.629 15.534 7.076 21.61L11.107 79.14l14.275-4.537A37.122 37.122 0 0 0 45.819 80.7c20.481 0 37.146-16.533 37.146-36.857S66.301 6.982 45.818 6.982zm22.311 46.956c-.273-.447-.994-.717-2.076-1.254-1.084-.537-6.41-3.138-7.4-3.495-.993-.358-1.717-.538-2.438.537-.721 1.076-2.797 3.495-3.43 4.212-.632.719-1.263.809-2.347.271-1.082-.537-4.571-1.673-8.708-5.333-3.219-2.848-5.393-6.364-6.025-7.441-.631-1.075-.066-1.656.475-2.191.488-.482 1.084-1.255 1.625-1.882.543-.628.723-1.075 1.082-1.793.363-.717.182-1.344-.09-1.883-.27-.537-2.438-5.825-3.34-7.977-.902-2.15-1.803-1.792-2.436-1.792-.631 0-1.354-.09-2.076-.09s-1.896.269-2.889 1.344c-.992 1.076-3.789 3.676-3.789 8.963 0 5.288 3.879 10.397 4.422 11.113.541.716 7.49 11.92 18.5 16.223C58.2 65.771 58.2 64.336 60.186 64.156c1.984-.179 6.406-2.599 7.312-5.107.9-2.512.9-4.663.631-5.111z"></path>
		</symbol>
	
		<symbol id="icon-arrow" viewBox="0 0 45 8">
			<path d="M44.354 4.354a.5.5 0 0 0 0-.708L41.172.464a.5.5 0 1 0-.707.708L43.293 4l-2.828 2.828a.5.5 0 1 0 .707.708l3.182-3.182zM0 4.5h44v-1H0v1z"></path>
		</symbol>
	
		<symbol id="icon-big-lens" viewBox="0 0 47 47">
			<path d="M47 43.282L33.124 29.407c2.304-3.074 3.686-6.875 3.686-11.002C36.81 8.255 28.554 0 18.405 0 8.255 0 0 8.256 0 18.405 0 28.554 8.256 36.81 18.405 36.81c4.127 0 7.928-1.382 11.002-3.686L43.282 47 47 43.282zM1.753 18.405c0-9.182 7.47-16.652 16.652-16.652 9.182 0 16.652 7.47 16.652 16.652 0 9.182-7.47 16.652-16.652 16.652-9.182 0-16.652-7.47-16.652-16.652zm29.419 13.228c.156-.151.31-.304.46-.46.128-.133.266-.254.39-.39l12.5 12.5-1.24 1.24-12.5-12.501c.137-.124.257-.262.39-.39z"></path>
		</symbol>
	
		<symbol id="icon-down-arrow" viewBox="0 0 16 138">
			<path d="M7.293 137.707a1 1 0 0 0 1.414 0l6.364-6.364a1 1 0 1 0-1.414-1.414L8 135.586l-5.657-5.657a1 1 0 1 0-1.414 1.414l6.364 6.364zM7 0v137h2V0H7z"></path>
		</symbol>
	
		<symbol id="icon-hotel" viewBox="0 0 85 85">
			<path d="M36.833 41.084h2.834v2.833h-2.834v-2.833zM31.167 41.084H34v2.833h-2.833v-2.833zM53.833 45.334h2.834v2.833h-2.834v-2.833zM48.167 45.334H51v2.833h-2.833v-2.833zM53.833 39.668h2.834V42.5h-2.834v-2.833zM48.167 39.668H51V42.5h-2.833v-2.833zM53.833 34.001h2.834v2.833h-2.834v-2.833zM48.167 34.001H51v2.833h-2.833v-2.833zM53.833 28.334h2.834v2.834h-2.834v-2.834zM48.167 28.334H51v2.834h-2.833v-2.834zM53.833 22.668h2.834V25.5h-2.834v-2.833zM48.167 22.668H51V25.5h-2.833v-2.833zM25.5 41.084h2.833v2.833H25.5v-2.833zM36.833 35.417h2.834v2.833h-2.834v-2.833zM31.167 35.417H34v2.834h-2.833v-2.834zM25.5 35.417h2.833v2.833H25.5v-2.833zM36.833 29.75h2.834v2.834h-2.834V29.75zM31.167 29.75H34v2.834h-2.833V29.75zM25.5 29.75h2.833v2.834H25.5V29.75zM36.833 24.084h2.834v2.834h-2.834v-2.834zM31.167 24.084H34v2.833h-2.833v-2.833zM25.5 24.084h2.833v2.833H25.5v-2.833zM36.833 18.417h2.834v2.833h-2.834v-2.833zM31.167 18.417H34v2.834h-2.833v-2.834zM25.5 18.417h2.833v2.833H25.5v-2.833zM36.833 12.75h2.834v2.834h-2.834v-2.833zM31.167 12.75H34v2.834h-2.833v-2.833zM25.5 12.75h2.833v2.834H25.5v-2.833zM24.083 59.5h2.834v2.834h-2.834V59.5zM29.75 59.5h11.333v2.834H29.75V59.5zM18.417 65.167h29.75V68h-29.75v-2.833z"></path><path d="M85 52.417c0-10.483-2.714-17-7.083-17-4.37 0-7.084 6.517-7.084 17a7.096 7.096 0 0 0 5.667 6.942v22.808h-5.667v-8.5h1.417c.782 0 1.417-.635 1.417-1.417v-9.916c0-.55-.32-1.051-.818-1.284l-6.076-2.833a1.417 1.417 0 0 0-1.353.083 17.844 17.844 0 0 1-3.087 1.552V19.834c0-.572-.343-1.087-.87-1.308l-16.13-6.72V1.418A1.417 1.417 0 0 0 43.42.09l-22.666 8.5c-.554.207-.92.737-.92 1.327v45.911a27.6 27.6 0 0 0-8.236 7.1 1.41 1.41 0 0 0-.264.822v8.5c0 .782.635 1.417 1.417 1.417h1.417v8.5H8.5V59.359a7.096 7.096 0 0 0 5.667-6.942c0-10.483-2.715-17-7.084-17S0 41.934 0 52.417a7.096 7.096 0 0 0 5.667 6.942v22.808H0V85h85v-2.833h-5.667V59.359A7.096 7.096 0 0 0 85 52.417zm-82.167 0c0-9.775 2.485-14.166 4.25-14.166 1.765 0 4.25 4.391 4.25 14.166a4.25 4.25 0 0 1-2.833 3.99v-3.99H5.667v3.99a4.25 4.25 0 0 1-2.834-3.99zm53.834 8.5c-4.216 0-6.708-1.673-9.593-3.61a74.279 74.279 0 0 0-1.74-1.133v-2.34H59.5v6.814a15.57 15.57 0 0 1-2.833.269zM59.5 20.779V51H45.333V14.876L59.5 20.779zm-17-17.317V46.75H22.667V10.9L42.5 3.461zM22.667 49.584H42.5v4.99a21.86 21.86 0 0 0-9.917-2.157 25.255 25.255 0 0 0-9.916 2.022v-4.855zm-8.5 14.65a24.494 24.494 0 0 1 18.416-8.984c6.344 0 9.682 2.242 12.912 4.409 2.996 2.012 6.093 4.091 11.172 4.091a18.904 18.904 0 0 0 9.592-2.648l4.574 2.134v7.598H14.167v-6.6zm18.416 9.433V76.5h-9.916v-2.833h9.916zm-9.916 5.666h9.916v2.834h-9.916v-2.834zm12.75-5.666h5.666v8.5h-5.666v-8.5zm8.5 0h5.666v8.5h-5.666v-8.5zm8.5 5.666h9.916v2.834h-9.916v-2.834zm9.916-2.833h-9.916v-2.833h9.916V76.5zM17 82.167v-8.5h2.833v8.5H17zm48.167 0v-8.5H68v8.5h-2.833zm8.5-29.75c0-9.775 2.484-14.166 4.25-14.166 1.765 0 4.25 4.391 4.25 14.166a4.25 4.25 0 0 1-2.834 3.99v-3.99H76.5v3.99a4.25 4.25 0 0 1-2.833-3.99z"></path><path d="M65.167 65.167H68V68h-2.833v-2.833z"></path>
		</symbol>
	
		<symbol id="icon-lens" viewBox="0 0 24 24">
			<path d="M23.088 21.348l.089-.088-.089-.089-6.418-6.418a8.68 8.68 0 0 0 1.685-5.138c0-4.82-3.92-8.74-8.74-8.74s-8.74 3.92-8.74 8.74 3.92 8.74 8.74 8.74a8.68 8.68 0 0 0 5.138-1.685l6.418 6.418.089.089.088-.089 1.74-1.74zm-7.41-5.451l.128-.306.09.087.074-.073.015-.014a.172.172 0 0 0 .005-.005l5.673 5.674-.404.403-5.673-5.673a.172.172 0 0 1 .005-.005l.012-.012.075-.076zM1.945 9.615c0-4.229 3.441-7.67 7.67-7.67 4.23 0 7.67 3.441 7.67 7.67 0 4.23-3.44 7.67-7.67 7.67-4.229 0-7.67-3.44-7.67-7.67z"></path>
		</symbol>
	
		<symbol id="icon-mobile" viewBox="0 0 61 95">
			<path d="M25.322 6.333h3.165V9.5h-3.165V6.333zM31.651 6.333h3.166V9.5H31.65V6.333z"></path><path d="M6.33 95h47.477a6.332 6.332 0 0 0 6.33-6.333V6.333A6.332 6.332 0 0 0 53.808 0H6.33A6.332 6.332 0 0 0 0 6.333v82.334A6.332 6.332 0 0 0 6.33 95zm47.477-3.167H6.33a3.166 3.166 0 0 1-3.165-3.166v-6.334h53.807v6.334a3.166 3.166 0 0 1-3.165 3.166zM3.165 79.167V15.833h53.807v63.334H3.165zm3.165-76h47.477a3.166 3.166 0 0 1 3.165 3.166v6.334H3.165V6.333A3.166 3.166 0 0 1 6.33 3.167z"></path><path d="M51.654 24.114a1.593 1.593 0 0 0-1.305-.337L25.174 28.5h-7.766a3.166 3.166 0 0 0-3.165 3.166v.159a7.916 7.916 0 0 0 0 15.517v.158a3.166 3.166 0 0 0 3.165 3.166V66.5a4.749 4.749 0 1 0 9.496 0V57h4.747c.874 0 1.583-.71 1.583-1.584V52.18l17.115 3.21a1.583 1.583 0 0 0 1.875-1.556v-28.5a1.581 1.581 0 0 0-.57-1.219zm-34.246 7.552h6.33V47.5h-6.33V31.666zm-6.33 7.917a4.76 4.76 0 0 1 3.165-4.48v8.96a4.76 4.76 0 0 1-3.165-4.48zm12.66 11.084v9.5h-3.165v-9.5h3.165zm-1.582 17.416a1.583 1.583 0 0 1-1.583-1.583v-3.167h3.165V66.5c0 .874-.708 1.583-1.582 1.583zm7.913-14.25h-3.165v-2.85l3.165.594v2.256zm18.99-1.9L26.905 47.77V31.397l22.156-4.164v24.7zM28.487 85.5h3.165v3.167h-3.165V85.5z"></path>
		</symbol>
	
</svg>
