<svg xmlns="http://www.w3.org/2000/svg" xmlns:xlink="http://www.w3.org/1999/xlink" width="0" height="0" style="position:absolute">
	
		<symbol id="icon-arrow" viewBox="0 0 45 8">
			<path d="M44.354 4.354a.5.5 0 0 0 0-.708L41.172.464a.5.5 0 1 0-.707.708L43.293 4l-2.828 2.828a.5.5 0 1 0 .707.708l3.182-3.182zM0 4.5h44v-1H0v1z" fill="#fff"></path>
		</symbol>
	
		<symbol id="icon-big-lens" viewBox="0 0 47 47">
			<path d="M47 43.282L33.124 29.407c2.304-3.074 3.686-6.875 3.686-11.002C36.81 8.255 28.554 0 18.405 0 8.255 0 0 8.256 0 18.405 0 28.554 8.256 36.81 18.405 36.81c4.127 0 7.928-1.382 11.002-3.686L43.282 47 47 43.282zM1.753 18.405c0-9.182 7.47-16.652 16.652-16.652 9.182 0 16.652 7.47 16.652 16.652 0 9.182-7.47 16.652-16.652 16.652-9.182 0-16.652-7.47-16.652-16.652zm29.419 13.228c.156-.151.31-.304.46-.46.128-.133.266-.254.39-.39l12.5 12.5-1.24 1.24-12.5-12.501c.137-.124.257-.262.39-.39z" fill="url(#a)"></path><defs><linearGradient id="a" y1="23.5" x2="47" y2="23.5" gradientUnits="userSpaceOnUse"><stop stop-color="#0094FF"></stop><stop offset="1" stop-color="#312783"></stop></linearGradient></defs>
		</symbol>
	
		<symbol id="icon-down-arrow" viewBox="0 0 16 138">
			<path d="M7.293 137.707a1 1 0 0 0 1.414 0l6.364-6.364a1 1 0 1 0-1.414-1.414L8 135.586l-5.657-5.657a1 1 0 1 0-1.414 1.414l6.364 6.364zM7 0v137h2V0H7z" fill="#fff"></path>
		</symbol>
	
		<symbol id="icon-facebook" viewBox="0 0 408.788 408.788">
			<path d="M353.701 0H55.087C24.665 0 .002 24.662.002 55.085v298.616c0 30.423 24.662 55.085 55.085 55.085h147.275l.251-146.078h-37.951a8.954 8.954 0 0 1-8.954-8.92l-.182-47.087a8.955 8.955 0 0 1 8.955-8.989h37.882v-45.498c0-52.8 32.247-81.55 79.348-81.55h38.65a8.955 8.955 0 0 1 8.955 8.955v39.704a8.955 8.955 0 0 1-8.95 8.955l-23.719.011c-25.615 0-30.575 12.172-30.575 30.035v39.389h56.285c5.363 0 9.524 4.683 8.892 10.009l-5.581 47.087a8.955 8.955 0 0 1-8.892 7.901h-50.453l-.251 146.078h87.631c30.422 0 55.084-24.662 55.084-55.084V55.085C408.786 24.662 384.124 0 353.701 0z" fill="#fff"></path>
		</symbol>
	
		<symbol id="icon-gear" viewBox="0 0 932.179 932.179">
			<g fill="#ce1a22"><path d="M61.2 341.538c4.9 16.8 11.7 33 20.3 48.2l-24.5 30.9c-8 10.1-7.1 24.5 1.9 33.6l42.2 42.2c9.1 9.1 23.5 9.899 33.6 1.899l30.7-24.3a223.05 223.05 0 0 0 50.1 21.2l4.6 39.5c1.5 12.8 12.3 22.4 25.1 22.4h59.7c12.8 0 23.6-9.601 25.1-22.4l4.4-38.1c18.8-4.9 36.8-12.2 53.7-21.7l29.7 23.5c10.1 8 24.5 7.1 33.6-1.9l42.2-42.2c9.1-9.1 9.9-23.5 1.9-33.6l-23.1-29.3c9.6-16.601 17.1-34.3 22.1-52.8l35.6-4.1c12.801-1.5 22.4-12.3 22.4-25.1v-59.7c0-12.8-9.6-23.6-22.4-25.1l-35.1-4.1c-4.801-18.3-12-35.8-21.199-52.2l21.6-27.3c8-10.1 7.1-24.5-1.9-33.6l-42.1-42.1c-9.1-9.1-23.5-9.9-33.6-1.9l-26.5 21c-17.2-10.1-35.601-17.8-54.9-23l-4-34.3c-1.5-12.8-12.3-22.4-25.1-22.4h-59.7c-12.8 0-23.6 9.6-25.1 22.4l-4 34.3c-19.8 5.3-38.7 13.3-56.3 23.8l-27.5-21.8c-10.1-8-24.5-7.1-33.6 1.9l-42.2 42.2c-9.1 9.1-9.9 23.5-1.9 33.6l23 29.1c-9.2 16.6-16.2 34.3-20.8 52.7l-36.8 4.2c-12.8 1.5-22.4 12.3-22.4 25.1v59.7c0 12.8 9.6 23.6 22.4 25.1l38.799 4.501zm216.3-161.5c54.4 0 98.7 44.3 98.7 98.7s-44.3 98.7-98.7 98.7c-54.399 0-98.7-44.3-98.7-98.7s44.3-98.7 98.7-98.7z"></path><path d="M867.699 356.238l-31.5-26.6c-9.699-8.2-24-7.8-33.199.9l-17.4 16.3c-14.699-7.1-30.299-12.1-46.4-15l-4.898-24c-2.5-12.4-14-21-26.602-20l-41.1 3.5c-12.6 1.1-22.5 11.4-22.9 24.1l-.799 24.4c-15.801 5.7-30.701 13.5-44.301 23.3l-20.799-13.8c-10.602-7-24.701-5-32.9 4.7l-26.6 31.7c-8.201 9.7-7.801 24 .898 33.2l18.201 19.399a186.39 186.39 0 0 0-13.4 44.4l-26 5.3c-12.4 2.5-21 14-20 26.601l3.5 41.1c1.1 12.6 11.4 22.5 24.1 22.9l28.1.899c5.102 13.4 11.801 26.101 19.9 38l-15.699 23.7c-7 10.6-5 24.7 4.699 32.9l31.5 26.6c9.701 8.2 24 7.8 33.201-.9l20.6-19.3c13.5 6.3 27.699 11 42.299 13.8l5.701 28.2c2.5 12.4 14 21 26.6 20l41.1-3.5c12.6-1.1 22.5-11.399 22.9-24.1l.9-27.601c15-5.3 29.199-12.5 42.299-21.399l22.701 15c10.6 7 24.699 5 32.9-4.7l26.6-31.5c8.199-9.7 7.799-24-.9-33.2L872.7 592.138c6.701-14.2 11.602-29.2 14.4-44.601l25-5.1c12.4-2.5 21-14 20-26.601l-3.5-41.1c-1.1-12.6-11.4-22.5-24.1-22.9l-25.1-.8a181.601 181.601 0 0 0-20.9-41.2l13.699-20.6c7.201-10.598 5.201-24.798-4.5-32.998zM712.801 593.837c-44.4 3.801-83.602-29.3-87.301-73.699-3.801-44.4 29.301-83.601 73.699-87.301 44.4-3.8 83.602 29.301 87.301 73.7 3.801 44.401-29.301 83.601-73.699 87.3zM205 704.438c-12.6 1.3-22.3 11.899-22.4 24.6l-.3 25.3c-.2 12.7 9.2 23.5 21.8 25.101l18.6 2.399c3.1 11.301 7.5 22.101 13.2 32.301l-12 14.8c-8 9.899-7.4 24.1 1.5 33.2l17.7 18.1c8.9 9.1 23.1 10.1 33.2 2.3l14.899-11.5c10.5 6.2 21.601 11.101 33.2 14.5l2 19.2c1.3 12.6 11.9 22.3 24.6 22.4l25.301.3c12.699.2 23.5-9.2 25.1-21.8l2.3-18.2c12.601-3.101 24.601-7.8 36-14l14 11.3c9.9 8 24.101 7.4 33.201-1.5l18.1-17.7c9.1-8.899 10.1-23.1 2.301-33.2L496.6 818.438c6.6-11 11.701-22.7 15.201-35l16.6-1.7c12.6-1.3 22.299-11.9 22.4-24.6l.299-25.301c.201-12.699-9.199-23.5-21.799-25.1l-16.201-2.1c-3.1-12.2-7.699-24-13.699-35l10.1-12.4c8-9.9 7.4-24.1-1.5-33.2l-17.699-18.1a24.966 24.966 0 0 0-33.201-2.3l-12.101 9.3a147.09 147.09 0 0 0-36.399-15.8l-1.601-15.7c-1.3-12.601-11.899-22.3-24.6-22.4l-25.3-.3c-12.7-.2-23.5 9.2-25.101 21.8l-2 15.601a151.042 151.042 0 0 0-37.699 15.399l-12.5-10.2c-9.9-8-24.101-7.399-33.201 1.5l-18.2 17.801a24.965 24.965 0 0 0-2.3 33.199l10.7 13.801c-6.2 11-11.1 22.699-14.3 35l-17.499 1.8zm163.3-28.601c36.3.4 65.399 30.301 65 66.601-.4 36.3-30.301 65.399-66.601 65-36.3-.4-65.399-30.3-65-66.601.401-36.299 30.301-65.399 66.601-65z"></path></g>
		</symbol>
	
		<symbol id="icon-guarantee" viewBox="0 0 512 512">
			<g fill="#fff"><path d="M40.871 444.183a15.001 15.001 0 0 0 12.269 7.79l59.475 3.57 32.829 49.722a15 15 0 0 0 25.592-.913l58.344-103.759 16.013 16.014A14.953 14.953 0 0 0 256 421c3.839 0 7.678-1.464 10.606-4.394l16.013-16.014 58.344 103.759a15 15 0 0 0 25.733.696l32.686-51.41 58.996-1.644a14.999 14.999 0 0 0 12.658-22.345l-57.641-102.546 15.36-4.115a15.004 15.004 0 0 0 10.607-18.371l-10.6-39.561a15.044 15.044 0 0 1 3.882-14.49l28.96-28.96c5.858-5.858 5.858-15.355 0-21.213l-28.96-28.96a15.045 15.045 0 0 1-3.883-14.489l10.6-39.562c1.03-3.843.491-7.937-1.499-11.382s-5.266-5.959-9.108-6.989l-39.561-10.6a15.042 15.042 0 0 1-10.607-10.607l-10.6-39.561a15 15 0 0 0-18.371-10.607l-39.561 10.6a15.04 15.04 0 0 1-14.416-3.809L266.785 4.575a15 15 0 0 0-21.57 0l-28.856 29.853a15.045 15.045 0 0 1-14.415 3.81l-39.562-10.6a15.004 15.004 0 0 0-18.371 10.607l-10.6 39.561a15.042 15.042 0 0 1-10.607 10.607l-39.561 10.6a15.004 15.004 0 0 0-10.607 18.371l10.6 39.561a15.044 15.044 0 0 1-3.882 14.49l-28.96 28.96c-5.858 5.858-5.858 15.355 0 21.213l28.96 28.96a15.045 15.045 0 0 1 3.883 14.489l-10.6 39.562c-1.03 3.843-.491 7.937 1.499 11.382s5.266 5.959 9.108 6.989l15.36 4.115L40.963 429.65a14.997 14.997 0 0 0-.092 14.533zm349.712-20.312a15.003 15.003 0 0 0-12.241 6.946L354.828 467.8l-47.513-84.498c2.572.193.56-.026 42.303 11.061a15.003 15.003 0 0 0 18.371-10.607l10.6-39.561a15.026 15.026 0 0 1 5.458-8.083l48.669 86.584-42.133 1.175zM82.213 211l18.354-18.354c11.332-11.331 15.794-27.986 11.647-43.466l-6.718-25.073 25.072-6.718c15.48-4.147 27.673-16.34 31.821-31.821l6.718-25.072 25.073 6.718c15.481 4.146 32.135-.316 43.466-11.648.06-.059 18.354-18.983 18.354-18.983s18.294 18.925 18.354 18.984c11.332 11.332 27.986 15.796 43.466 11.647l25.073-6.718 6.718 25.072c4.147 15.48 16.34 27.673 31.821 31.821l25.072 6.718-6.718 25.073c-4.146 15.479.316 32.135 11.648 43.466L429.787 211l-18.354 18.354c-11.332 11.331-15.794 27.986-11.647 43.466l6.718 25.073-25.072 6.718c-15.48 4.147-27.673 16.34-31.821 31.821l-6.718 25.072-25.073-6.718c-14.373-3.848-29.752-.268-40.949 9.333-1.307 1.002-.315.148-20.871 20.668-20.415-20.375-19.565-19.673-20.902-20.692-11.314-9.684-26.689-13.122-40.918-9.309l-25.073 6.718-6.718-25.072c-4.147-15.48-16.34-27.673-31.821-31.821l-25.072-6.718 6.718-25.073c4.146-15.479-.316-32.135-11.648-43.466L82.213 211zm45.741 125.113a15.031 15.031 0 0 1 5.458 8.083l10.6 39.561a14.999 14.999 0 0 0 18.371 10.607c42.018-11.16 39.74-10.867 42.303-11.061l-47.75 84.919-23.417-35.467a14.997 14.997 0 0 0-11.619-6.708l-43.044-2.583 49.098-87.351z"></path><path d="M230.394 266.606c2.928 2.93 6.767 4.394 10.606 4.394s7.678-1.464 10.606-4.394l60-60c5.858-5.858 5.858-15.355 0-21.213-5.857-5.858-15.355-5.858-21.213 0L241 234.787l-19.394-19.393c-5.857-5.858-15.355-5.858-21.213 0-5.858 5.858-5.858 15.355 0 21.213l30.001 29.999z"></path><path d="M256 331c66.168 0 120-53.832 120-120S322.168 91 256 91s-120 53.832-120 120 53.832 120 120 120zm0-210c49.626 0 90 40.374 90 90s-40.374 90-90 90-90-40.374-90-90 40.374-90 90-90z"></path></g>
		</symbol>
	
		<symbol id="icon-hotel" viewBox="0 0 85 85">
			<path d="M36.833 41.084h2.834v2.833h-2.834v-2.833z" fill="url(#a)"></path><path d="M31.167 41.084H34v2.833h-2.833v-2.833z" fill="url(#b)"></path><path d="M53.833 45.334h2.834v2.833h-2.834v-2.833z" fill="url(#c)"></path><path d="M48.167 45.334H51v2.833h-2.833v-2.833z" fill="url(#d)"></path><path d="M53.833 39.668h2.834V42.5h-2.834v-2.833z" fill="url(#e)"></path><path d="M48.167 39.668H51V42.5h-2.833v-2.833z" fill="url(#f)"></path><path d="M53.833 34.001h2.834v2.833h-2.834v-2.833z" fill="url(#g)"></path><path d="M48.167 34.001H51v2.833h-2.833v-2.833z" fill="url(#h)"></path><path d="M53.833 28.334h2.834v2.834h-2.834v-2.834z" fill="url(#i)"></path><path d="M48.167 28.334H51v2.834h-2.833v-2.834z" fill="url(#j)"></path><path d="M53.833 22.668h2.834V25.5h-2.834v-2.833z" fill="url(#k)"></path><path d="M48.167 22.668H51V25.5h-2.833v-2.833z" fill="url(#l)"></path><path d="M25.5 41.084h2.833v2.833H25.5v-2.833z" fill="url(#m)"></path><path d="M36.833 35.417h2.834v2.833h-2.834v-2.833z" fill="url(#n)"></path><path d="M31.167 35.417H34v2.834h-2.833v-2.834z" fill="url(#o)"></path><path d="M25.5 35.417h2.833v2.833H25.5v-2.833z" fill="url(#p)"></path><path d="M36.833 29.75h2.834v2.834h-2.834V29.75z" fill="url(#q)"></path><path d="M31.167 29.75H34v2.834h-2.833V29.75z" fill="url(#r)"></path><path d="M25.5 29.75h2.833v2.834H25.5V29.75z" fill="url(#s)"></path><path d="M36.833 24.084h2.834v2.834h-2.834v-2.834z" fill="url(#t)"></path><path d="M31.167 24.084H34v2.833h-2.833v-2.833z" fill="url(#u)"></path><path d="M25.5 24.084h2.833v2.833H25.5v-2.833z" fill="url(#v)"></path><path d="M36.833 18.417h2.834v2.833h-2.834v-2.833z" fill="url(#w)"></path><path d="M31.167 18.417H34v2.834h-2.833v-2.834z" fill="url(#x)"></path><path d="M25.5 18.417h2.833v2.833H25.5v-2.833z" fill="url(#y)"></path><path d="M36.833 12.75h2.834v2.834h-2.834v-2.833z" fill="url(#z)"></path><path d="M31.167 12.75H34v2.834h-2.833v-2.833z" fill="url(#A)"></path><path d="M25.5 12.75h2.833v2.834H25.5v-2.833z" fill="url(#B)"></path><path d="M24.083 59.5h2.834v2.834h-2.834V59.5z" fill="url(#C)"></path><path d="M29.75 59.5h11.333v2.834H29.75V59.5z" fill="url(#D)"></path><path d="M18.417 65.167h29.75V68h-29.75v-2.833z" fill="url(#E)"></path><path d="M85 52.417c0-10.483-2.714-17-7.083-17-4.37 0-7.084 6.517-7.084 17a7.096 7.096 0 0 0 5.667 6.942v22.808h-5.667v-8.5h1.417c.782 0 1.417-.635 1.417-1.417v-9.916c0-.55-.32-1.051-.818-1.284l-6.076-2.833a1.417 1.417 0 0 0-1.353.083 17.844 17.844 0 0 1-3.087 1.552V19.834c0-.572-.343-1.087-.87-1.308l-16.13-6.72V1.418A1.417 1.417 0 0 0 43.42.09l-22.666 8.5c-.554.207-.92.737-.92 1.327v45.911a27.6 27.6 0 0 0-8.236 7.1 1.41 1.41 0 0 0-.264.822v8.5c0 .782.635 1.417 1.417 1.417h1.417v8.5H8.5V59.359a7.096 7.096 0 0 0 5.667-6.942c0-10.483-2.715-17-7.084-17S0 41.934 0 52.417a7.096 7.096 0 0 0 5.667 6.942v22.808H0V85h85v-2.833h-5.667V59.359A7.096 7.096 0 0 0 85 52.417zm-82.167 0c0-9.775 2.485-14.166 4.25-14.166 1.765 0 4.25 4.391 4.25 14.166a4.25 4.25 0 0 1-2.833 3.99v-3.99H5.667v3.99a4.25 4.25 0 0 1-2.834-3.99zm53.834 8.5c-4.216 0-6.708-1.673-9.593-3.61a74.279 74.279 0 0 0-1.74-1.133v-2.34H59.5v6.814a15.57 15.57 0 0 1-2.833.269zM59.5 20.779V51H45.333V14.876L59.5 20.779zm-17-17.317V46.75H22.667V10.9L42.5 3.461zM22.667 49.584H42.5v4.99a21.86 21.86 0 0 0-9.917-2.157 25.255 25.255 0 0 0-9.916 2.022v-4.855zm-8.5 14.65a24.494 24.494 0 0 1 18.416-8.984c6.344 0 9.682 2.242 12.912 4.409 2.996 2.012 6.093 4.091 11.172 4.091a18.904 18.904 0 0 0 9.592-2.648l4.574 2.134v7.598H14.167v-6.6zm18.416 9.433V76.5h-9.916v-2.833h9.916zm-9.916 5.666h9.916v2.834h-9.916v-2.834zm12.75-5.666h5.666v8.5h-5.666v-8.5zm8.5 0h5.666v8.5h-5.666v-8.5zm8.5 5.666h9.916v2.834h-9.916v-2.834zm9.916-2.833h-9.916v-2.833h9.916V76.5zM17 82.167v-8.5h2.833v8.5H17zm48.167 0v-8.5H68v8.5h-2.833zm8.5-29.75c0-9.775 2.484-14.166 4.25-14.166 1.765 0 4.25 4.391 4.25 14.166a4.25 4.25 0 0 1-2.834 3.99v-3.99H76.5v3.99a4.25 4.25 0 0 1-2.833-3.99z" fill="url(#F)"></path><path d="M65.167 65.167H68V68h-2.833v-2.833z" fill="url(#G)"></path><defs><linearGradient id="a" x1="36.833" y1="42.501" x2="39.667" y2="42.501" gradientUnits="userSpaceOnUse"><stop stop-color="#0094FF"></stop><stop offset="1" stop-color="#312783"></stop></linearGradient><linearGradient id="b" x1="31.167" y1="42.501" x2="34" y2="42.501" gradientUnits="userSpaceOnUse"><stop stop-color="#0094FF"></stop><stop offset="1" stop-color="#312783"></stop></linearGradient><linearGradient id="c" x1="53.833" y1="46.751" x2="56.667" y2="46.751" gradientUnits="userSpaceOnUse"><stop stop-color="#0094FF"></stop><stop offset="1" stop-color="#312783"></stop></linearGradient><linearGradient id="d" x1="48.167" y1="46.751" x2="51" y2="46.751" gradientUnits="userSpaceOnUse"><stop stop-color="#0094FF"></stop><stop offset="1" stop-color="#312783"></stop></linearGradient><linearGradient id="e" x1="53.833" y1="41.084" x2="56.667" y2="41.084" gradientUnits="userSpaceOnUse"><stop stop-color="#0094FF"></stop><stop offset="1" stop-color="#312783"></stop></linearGradient><linearGradient id="f" x1="48.167" y1="41.084" x2="51" y2="41.084" gradientUnits="userSpaceOnUse"><stop stop-color="#0094FF"></stop><stop offset="1" stop-color="#312783"></stop></linearGradient><linearGradient id="g" x1="53.833" y1="35.418" x2="56.667" y2="35.418" gradientUnits="userSpaceOnUse"><stop stop-color="#0094FF"></stop><stop offset="1" stop-color="#312783"></stop></linearGradient><linearGradient id="h" x1="48.167" y1="35.418" x2="51" y2="35.418" gradientUnits="userSpaceOnUse"><stop stop-color="#0094FF"></stop><stop offset="1" stop-color="#312783"></stop></linearGradient><linearGradient id="i" x1="53.833" y1="29.751" x2="56.667" y2="29.751" gradientUnits="userSpaceOnUse"><stop stop-color="#0094FF"></stop><stop offset="1" stop-color="#312783"></stop></linearGradient><linearGradient id="j" x1="48.167" y1="29.751" x2="51" y2="29.751" gradientUnits="userSpaceOnUse"><stop stop-color="#0094FF"></stop><stop offset="1" stop-color="#312783"></stop></linearGradient><linearGradient id="k" x1="53.833" y1="24.084" x2="56.667" y2="24.084" gradientUnits="userSpaceOnUse"><stop stop-color="#0094FF"></stop><stop offset="1" stop-color="#312783"></stop></linearGradient><linearGradient id="l" x1="48.167" y1="24.084" x2="51" y2="24.084" gradientUnits="userSpaceOnUse"><stop stop-color="#0094FF"></stop><stop offset="1" stop-color="#312783"></stop></linearGradient><linearGradient id="m" x1="25.5" y1="42.501" x2="28.333" y2="42.501" gradientUnits="userSpaceOnUse"><stop stop-color="#0094FF"></stop><stop offset="1" stop-color="#312783"></stop></linearGradient><linearGradient id="n" x1="36.833" y1="36.834" x2="39.667" y2="36.834" gradientUnits="userSpaceOnUse"><stop stop-color="#0094FF"></stop><stop offset="1" stop-color="#312783"></stop></linearGradient><linearGradient id="o" x1="31.167" y1="36.834" x2="34" y2="36.834" gradientUnits="userSpaceOnUse"><stop stop-color="#0094FF"></stop><stop offset="1" stop-color="#312783"></stop></linearGradient><linearGradient id="p" x1="25.5" y1="36.834" x2="28.333" y2="36.834" gradientUnits="userSpaceOnUse"><stop stop-color="#0094FF"></stop><stop offset="1" stop-color="#312783"></stop></linearGradient><linearGradient id="q" x1="36.833" y1="31.167" x2="39.667" y2="31.167" gradientUnits="userSpaceOnUse"><stop stop-color="#0094FF"></stop><stop offset="1" stop-color="#312783"></stop></linearGradient><linearGradient id="r" x1="31.167" y1="31.167" x2="34" y2="31.167" gradientUnits="userSpaceOnUse"><stop stop-color="#0094FF"></stop><stop offset="1" stop-color="#312783"></stop></linearGradient><linearGradient id="s" x1="25.5" y1="31.167" x2="28.333" y2="31.167" gradientUnits="userSpaceOnUse"><stop stop-color="#0094FF"></stop><stop offset="1" stop-color="#312783"></stop></linearGradient><linearGradient id="t" x1="36.833" y1="25.501" x2="39.667" y2="25.501" gradientUnits="userSpaceOnUse"><stop stop-color="#0094FF"></stop><stop offset="1" stop-color="#312783"></stop></linearGradient><linearGradient id="u" x1="31.167" y1="25.5" x2="34" y2="25.5" gradientUnits="userSpaceOnUse"><stop stop-color="#0094FF"></stop><stop offset="1" stop-color="#312783"></stop></linearGradient><linearGradient id="v" x1="25.5" y1="25.501" x2="28.333" y2="25.501" gradientUnits="userSpaceOnUse"><stop stop-color="#0094FF"></stop><stop offset="1" stop-color="#312783"></stop></linearGradient><linearGradient id="w" x1="36.833" y1="19.834" x2="39.667" y2="19.834" gradientUnits="userSpaceOnUse"><stop stop-color="#0094FF"></stop><stop offset="1" stop-color="#312783"></stop></linearGradient><linearGradient id="x" x1="31.167" y1="19.834" x2="34" y2="19.834" gradientUnits="userSpaceOnUse"><stop stop-color="#0094FF"></stop><stop offset="1" stop-color="#312783"></stop></linearGradient><linearGradient id="y" x1="25.5" y1="19.834" x2="28.333" y2="19.834" gradientUnits="userSpaceOnUse"><stop stop-color="#0094FF"></stop><stop offset="1" stop-color="#312783"></stop></linearGradient><linearGradient id="z" x1="36.833" y1="14.168" x2="39.667" y2="14.168" gradientUnits="userSpaceOnUse"><stop stop-color="#0094FF"></stop><stop offset="1" stop-color="#312783"></stop></linearGradient><linearGradient id="A" x1="31.167" y1="14.168" x2="34" y2="14.168" gradientUnits="userSpaceOnUse"><stop stop-color="#0094FF"></stop><stop offset="1" stop-color="#312783"></stop></linearGradient><linearGradient id="B" x1="25.5" y1="14.168" x2="28.333" y2="14.168" gradientUnits="userSpaceOnUse"><stop stop-color="#0094FF"></stop><stop offset="1" stop-color="#312783"></stop></linearGradient><linearGradient id="C" x1="24.083" y1="60.917" x2="26.917" y2="60.917" gradientUnits="userSpaceOnUse"><stop stop-color="#0094FF"></stop><stop offset="1" stop-color="#312783"></stop></linearGradient><linearGradient id="D" x1="29.75" y1="60.917" x2="41.083" y2="60.917" gradientUnits="userSpaceOnUse"><stop stop-color="#0094FF"></stop><stop offset="1" stop-color="#312783"></stop></linearGradient><linearGradient id="E" x1="18.417" y1="66.583" x2="48.167" y2="66.583" gradientUnits="userSpaceOnUse"><stop stop-color="#0094FF"></stop><stop offset="1" stop-color="#312783"></stop></linearGradient><linearGradient id="F" y1="42.5" x2="85" y2="42.5" gradientUnits="userSpaceOnUse"><stop stop-color="#0094FF"></stop><stop offset="1" stop-color="#312783"></stop></linearGradient><linearGradient id="G" x1="65.167" y1="66.583" x2="68" y2="66.583" gradientUnits="userSpaceOnUse"><stop stop-color="#0094FF"></stop><stop offset="1" stop-color="#312783"></stop></linearGradient></defs>
		</symbol>
	
		<symbol id="icon-instagram" viewBox="0 0 551.034 551.034">
			<g fill="#fff"><path d="M386.878 0H164.156C73.64 0 0 73.64 0 164.156v222.722c0 90.516 73.64 164.156 164.156 164.156h222.722c90.516 0 164.156-73.64 164.156-164.156V164.156C551.033 73.64 477.393 0 386.878 0zM495.6 386.878c0 60.045-48.677 108.722-108.722 108.722H164.156c-60.045 0-108.722-48.677-108.722-108.722V164.156c0-60.046 48.677-108.722 108.722-108.722h222.722c60.045 0 108.722 48.676 108.722 108.722v222.722z"></path><path d="M275.517 133C196.933 133 133 196.933 133 275.516s63.933 142.517 142.517 142.517S418.034 354.1 418.034 275.516 354.101 133 275.517 133zm0 229.6c-48.095 0-87.083-38.988-87.083-87.083s38.989-87.083 87.083-87.083c48.095 0 87.083 38.988 87.083 87.083 0 48.094-38.989 87.083-87.083 87.083z"></path><circle cx="418.31" cy="134.07" r="34.15"></circle></g>
		</symbol>
	
		<symbol id="icon-lens" viewBox="0 0 24 24">
			<path d="M23.088 21.348l.089-.088-.089-.089-6.418-6.418a8.68 8.68 0 0 0 1.685-5.138c0-4.82-3.92-8.74-8.74-8.74s-8.74 3.92-8.74 8.74 3.92 8.74 8.74 8.74a8.68 8.68 0 0 0 5.138-1.685l6.418 6.418.089.089.088-.089 1.74-1.74zm-7.41-5.451l.128-.306.09.087.074-.073.015-.014a.172.172 0 0 0 .005-.005l5.673 5.674-.404.403-5.673-5.673a.172.172 0 0 1 .005-.005l.012-.012.075-.076zM1.945 9.615c0-4.229 3.441-7.67 7.67-7.67 4.23 0 7.67 3.441 7.67 7.67 0 4.23-3.44 7.67-7.67 7.67-4.229 0-7.67-3.44-7.67-7.67z" fill="#fff" stroke="#fff" stroke-width=".25"></path>
		</symbol>
	
		<symbol id="icon-mobile" viewBox="0 0 61 95">
			<path d="M25.322 6.333h3.165V9.5h-3.165V6.333z" fill="url(#a)"></path><path d="M31.651 6.333h3.166V9.5H31.65V6.333z" fill="url(#b)"></path><path d="M6.33 95h47.477a6.332 6.332 0 0 0 6.33-6.333V6.333A6.332 6.332 0 0 0 53.808 0H6.33A6.332 6.332 0 0 0 0 6.333v82.334A6.332 6.332 0 0 0 6.33 95zm47.477-3.167H6.33a3.166 3.166 0 0 1-3.165-3.166v-6.334h53.807v6.334a3.166 3.166 0 0 1-3.165 3.166zM3.165 79.167V15.833h53.807v63.334H3.165zm3.165-76h47.477a3.166 3.166 0 0 1 3.165 3.166v6.334H3.165V6.333A3.166 3.166 0 0 1 6.33 3.167z" fill="url(#c)"></path><path d="M51.654 24.114a1.593 1.593 0 0 0-1.305-.337L25.174 28.5h-7.766a3.166 3.166 0 0 0-3.165 3.166v.159a7.916 7.916 0 0 0 0 15.517v.158a3.166 3.166 0 0 0 3.165 3.166V66.5a4.749 4.749 0 1 0 9.496 0V57h4.747c.874 0 1.583-.71 1.583-1.584V52.18l17.115 3.21a1.583 1.583 0 0 0 1.875-1.556v-28.5a1.581 1.581 0 0 0-.57-1.219zm-34.246 7.552h6.33V47.5h-6.33V31.666zm-6.33 7.917a4.76 4.76 0 0 1 3.165-4.48v8.96a4.76 4.76 0 0 1-3.165-4.48zm12.66 11.084v9.5h-3.165v-9.5h3.165zm-1.582 17.416a1.583 1.583 0 0 1-1.583-1.583v-3.167h3.165V66.5c0 .874-.708 1.583-1.582 1.583zm7.913-14.25h-3.165v-2.85l3.165.594v2.256zm18.99-1.9L26.905 47.77V31.397l22.156-4.164v24.7z" fill="url(#d)"></path><path d="M28.487 85.5h3.165v3.167h-3.165V85.5z" fill="url(#e)"></path><defs><linearGradient id="a" x1="25.322" y1="7.917" x2="28.487" y2="7.917" gradientUnits="userSpaceOnUse"><stop stop-color="#0094FF"></stop><stop offset="1" stop-color="#312783"></stop></linearGradient><linearGradient id="b" x1="31.651" y1="7.917" x2="34.817" y2="7.917" gradientUnits="userSpaceOnUse"><stop stop-color="#0094FF"></stop><stop offset="1" stop-color="#312783"></stop></linearGradient><linearGradient id="c" y1="47.5" x2="60.138" y2="47.5" gradientUnits="userSpaceOnUse"><stop stop-color="#0094FF"></stop><stop offset="1" stop-color="#312783"></stop></linearGradient><linearGradient id="d" x1="7.903" y1="47.5" x2="52.225" y2="47.5" gradientUnits="userSpaceOnUse"><stop stop-color="#0094FF"></stop><stop offset="1" stop-color="#312783"></stop></linearGradient><linearGradient id="e" x1="28.487" y1="87.083" x2="31.652" y2="87.083" gradientUnits="userSpaceOnUse"><stop stop-color="#0094FF"></stop><stop offset="1" stop-color="#312783"></stop></linearGradient></defs>
		</symbol>
	
		<symbol id="icon-package" viewBox="0 0 473.8 473.8">
			<path d="M454.8 111.7c0-1.8-.4-3.6-1.2-5.3-1.6-3.4-4.7-5.7-8.1-6.4L241.8 1.2c-3.3-1.6-7.2-1.6-10.5 0L25.6 100.9c-4 1.9-6.6 5.9-6.8 10.4V362c0 4.6 2.6 8.8 6.8 10.8l205.7 99.7c.1 0 .1 0 .2.1.3.1.6.2.9.4.1 0 .2.1.4.1l.9.3c.1 0 .2.1.3.1.3.1.7.1 1 .2h.3c.4 0 .9.1 1.3.1s.9 0 1.3-.1h.3c.3 0 .7-.1 1-.2.1 0 .2-.1.3-.1l.9-.3c.1 0 .2-.1.4-.1.3-.1.6-.2.9-.4.1 0 .1 0 .2-.1l206.3-100c4.1-2 6.8-6.2 6.8-10.8V112c-.2-.1-.2-.2-.2-.3zM236.5 25.3l178.4 86.5-65.7 31.9-178.4-86.5 65.7-31.9zm0 173L58.1 111.8l85.2-41.3L321.7 157l-85.2 41.3zM42.8 131.1l181.7 88.1v223.3L42.8 354.4V131.1zm205.7 311.4V219.2l85.3-41.4v58.4c0 6.6 5.4 12 12 12s12-5.4 12-12v-70.1l73-35.4V354l-182.3 88.5z" fill="#fff"></path>
		</symbol>
	
		<symbol id="icon-share" viewBox="0 0 493.4 443.7">
			<path d="M300.2 282c-24.3-13.3-52.3-13.6-76-3.3l-80.6-128.4c7-6.3 13.1-13.9 17.8-22.6 4.8-8.8 7.9-17.9 9.4-27.4l151.4-1.2c3.9 25.5 19.3 49.1 43.7 62.4 41.6 22.8 94.1 7.5 116.9-34.2s7.5-94.1-34.2-116.9-94.1-7.5-116.9 34.2c-4.8 8.8-7.9 18-9.4 27.4L171 73.3c-3.9-25.6-19.3-49.1-43.7-62.4C85.8-11.8 33.4 3.5 10.6 45.1S3.2 139.2 44.8 162c24.4 13.4 52.5 13.6 76.3 3.1l80.5 128.3c-7.1 6.4-13.4 14-18.2 22.8-22.8 41.6-7.5 94.1 34.2 116.9 41.7 22.8 94.1 7.5 116.9-34.2 22.7-41.6 7.3-94.1-34.3-116.9zM435.7 34.4c28.6 15.7 39.1 51.6 23.5 80.2-15.7 28.6-51.6 39.1-80.2 23.5s-39.1-51.6-23.5-80.2 51.7-39.1 80.2-23.5zm-377.9 104c-28.6-15.7-39.1-51.6-23.5-80.2S85.9 19 114.5 34.7s39.1 51.6 23.5 80.2c-15.7 28.6-51.7 39.1-80.2 23.5zm172.7 270.9c-28.6-15.7-39.1-51.6-23.5-80.2s51.6-39.1 80.2-23.5c28.6 15.7 39.1 51.6 23.5 80.2s-51.6 39.1-80.2 23.5z" fill="#fff"></path><circle cx="86.2" cy="86.5" r="26.7" fill="#fff"></circle><circle cx="407.4" cy="86.5" r="26.7" fill="#fff"></circle><circle cx="258.9" cy="357.4" r="26.7" fill="#fff"></circle>
		</symbol>
	
		<symbol id="icon-vk" viewBox="0 0 512 512">
			<path d="M440.649 295.361c16.984 16.582 34.909 32.182 50.142 50.436 6.729 8.112 13.099 16.482 17.973 25.896 6.906 13.382.651 28.108-11.348 28.907l-74.59-.034c-19.238 1.596-34.585-6.148-47.489-19.302-10.327-10.519-19.891-21.714-29.821-32.588-4.071-4.444-8.332-8.626-13.422-11.932-10.182-6.609-19.021-4.586-24.84 6.034-5.926 10.802-7.271 22.762-7.853 34.8-.799 17.564-6.108 22.182-23.751 22.986-37.705 1.778-73.489-3.926-106.732-22.947-29.308-16.768-52.034-40.441-71.816-67.24-38.513-52.183-68.008-109.525-94.516-168.473-5.967-13.281-1.603-20.41 13.051-20.663 24.333-.473 48.663-.439 73.025-.034 9.89.145 16.437 5.817 20.256 15.16 13.165 32.371 29.274 63.169 49.494 91.716 5.385 7.6 10.876 15.201 18.694 20.55 8.65 5.923 15.236 3.96 19.305-5.676 2.582-6.11 3.713-12.691 4.295-19.234 1.928-22.513 2.182-44.988-1.199-67.422-2.076-14.001-9.962-23.065-23.933-25.714-7.129-1.351-6.068-4.004-2.616-8.073 5.995-7.018 11.634-11.387 22.875-11.387h84.298c13.271 2.619 16.218 8.581 18.035 21.934l.072 93.637c-.145 5.169 2.582 20.51 11.893 23.931 7.452 2.436 12.364-3.526 16.836-8.251 20.183-21.421 34.588-46.737 47.457-72.951 5.711-11.527 10.622-23.497 15.381-35.458 3.526-8.875 9.059-13.242 19.056-13.049l81.132.072c2.406 0 4.84.035 7.17.434 13.671 2.33 17.418 8.211 13.195 21.561-6.653 20.945-19.598 38.4-32.255 55.935-13.53 18.721-28.001 36.802-41.418 55.634-12.328 17.2-11.349 25.868 3.964 40.805z" fill="#fff"></path>
		</symbol>
	
		<symbol id="icon-youtube" viewBox="0 0 461.001 461.001">
			<path d="M365.257 67.393H95.744C42.866 67.393 0 110.259 0 163.137v134.728c0 52.878 42.866 95.744 95.744 95.744h269.513c52.878 0 95.744-42.866 95.744-95.744V163.137c0-52.878-42.866-95.744-95.744-95.744zm-64.751 169.663l-126.06 60.123c-3.359 1.602-7.239-.847-7.239-4.568V168.607c0-3.774 3.982-6.22 7.348-4.514l126.06 63.881c3.748 1.899 3.683 7.274-.109 9.082z" fill="#fff"></path>
		</symbol>
	
</svg>
