<svg xmlns="http://www.w3.org/2000/svg" height="134.973" width="465.613"><path d="M133.737 19.84a94.032 94.032 0 0 0-11.232-8.032l-11.845 8.308-.103-.085 6.777-11.144c-.85-.421-1.667-.836-2.493-1.23a77.387 77.387 0 0 0-13.345-4.96c-.434-.116-.661-.017-.935.277-1.54 1.66-3.096 3.306-4.731 5.046 0-.563-.006-1.009 0-1.455.025-1.536.033-3.073.091-4.61.022-.555-.253-.742-.717-.799C93.54.946 91.88.646 90.21.555 85.76.31 81.305-.025 76.854.003 65.45.076 54.354 1.935 43.79 6.41c-12.156 5.15-22.002 13.185-29.783 23.826-2.31 3.16-4.308 6.48-6.12 9.951C2.551 50.413.449 62.942.017 65.963c-.036.26-.004.53-.004.852h28.363c-.433.436-.715.739-1.015 1.021-1.455 1.364-2.917 2.72-4.371 4.083-3.142 2.943-6.253 5.917-9.437 8.812-.855.777-1.215 1.656-1.223 2.732-.018 2.457-.158 4.928.029 7.372.359 4.689 1.583 9.186 3.48 13.496 2.85 6.48 6.976 12.058 12.06 16.94 4.522 4.341 9.537 7.972 15.418 10.275a40.55 40.55 0 0 0 8.02 2.229c19.99 3.385 33.127-1.267 37.528-3.254 2.077-.937 4.088-2.035 5.786-3.607.085-.078.172-.154.249-.24.125-.142.244-.29.397-.472-6.925-1.361-13.598-3.292-19.905-6.707.475 2.65 1.46 4.854 3.392 6.719-.754-.14-1.518-.246-2.262-.427-6.206-1.51-11.932-4.195-17.535-7.185l-1.05-.556c.453 1.446 1.24 2.535 2.059 3.597.814 1.058 1.675 2.08 2.652 3.286-.967-.387-1.754-.692-2.532-1.015-3.724-1.549-7.35-3.303-10.757-5.465-2.702-1.714-5.209-3.674-7.268-6.177-1.44-1.752-2.56-3.623-3.16-5.834-.747-2.75-.618-5.444.342-8.088.487-1.338 1.781-5.537 7.498-7.701l-4.165 12.67c7.453 2.413 14.866 4.812 22.341 7.23l-1.978 4.718c1.613 0 3.16.022 4.707-.004 3.902-.069 7.805-.17 11.707-.237 3.854-.065 7.71-.099 11.563-.167.23-.004.54-.123.671-.294 2.599-3.383 5.176-6.782 7.755-10.178.026-.033.02-.09.042-.205-1.277-.6-2.555-1.24-3.868-1.796-.557-.237-.765-.578-.791-1.143a588.751 588.751 0 0 0-.31-5.913c-.076-1.37-.168-2.738-.258-4.173-2.531 1.364-4.93 2.664-7.338 3.941-.211.11-.524.168-.745.1-2.823-.867-5.638-1.761-8.453-2.65-.333-.105-.605-.213-.591-.683.051-1.705.043-3.411.096-5.117.007-.222.198-.54.392-.638 1.662-.83 3.343-1.625 5.023-2.421 1.07-.506 2.205-.903 3.204-1.523.828-.513 1.485.004 2.15.152 2.242.499 4.447 1.165 6.671 1.747.986.258 1.977.503 2.979.688.659.122.74.473.637 1.04-.335 1.828-.644 3.662-.967 5.493-.1.562-.212 1.123-.334 1.77 4.39-1.32 8.655-2.592 12.91-3.894.38-.116.751-.37 1.044-.647 2.06-1.945 4.564-2.857 7.316-3.215 2.029-.264 3.83-1.031 5.556-2.162 4.033-2.638 8.15-5.146 12.232-7.708.203-.128.399-.268.691-.465L110.509 63.26l3.673-4.724-48.235-23.922c12.15-3.965 26.79-2.044 35.828 12.052 2.496-1.597 4.985-3.204 7.488-4.788 4.132-2.616 8.265-5.226 12.411-7.817 2.458-1.537 4.958-3.005 7.408-4.554 2.783-1.76 5.53-3.576 8.297-5.361.217-.14.47-.227.706-.339v-.293c-1.449-1.225-2.888-2.46-4.348-3.672" fill="#100f0d" stroke="white"/><path d="M121.2 74.105c-2.19-.89-4.37-1.814-6.56-2.706-3.1-1.261-6.204-2.511-9.312-3.753-.687-.275-1.353-.578-2.162-.404-1.018.216-2.063.31-3.099.437-2.318.286-4.639.548-6.956.852-.371.05-.523-.021-.63-.375-.283-.947-.599-1.884-.938-2.937-1.089-.137-2.234-.275-3.376-.431-.194-.027-.455-.076-.55-.21-.669-.94-1.294-1.907-1.946-2.857-.589-.86-1.194-1.708-1.852-2.647.282-.021.428-.066.558-.037 1.841.416 3.682.834 5.52 1.266 1.874.44 3.742.903 5.615 1.343 1.17.275 2.354.495 3.516.801.7.184 1.332.32 1.974-.18.739-.578 1.524-1.096 2.328-1.668-1.178-.556-2.307-1.064-3.412-1.619-3.445-1.726-6.872-3.49-10.323-5.204-4.002-1.984-7.996-3.99-12.043-5.881-6.644-3.105-13.326-6.126-20-9.165-.222-.101-.596-.107-.796.015-5.863 3.542-10.75 8.064-13.988 14.188-2.814 5.323-3.936 11.021-3.698 17.026.048 1.19.401 2.007 1.375 2.734 2.602 1.945 5.125 3.998 7.684 6.003.81.635 1.633 1.253 2.607 2l.473-23.314 7.2 6.634 2.386-11.494c7.035 4.19 13.952 8.309 21.045 12.531l-9.771.755c0 .274-.012.442.001.61.138 1.715.286 3.43.417 5.145.202 2.624.395 5.248.585 7.874.03.406.19.505.57.349 3.272-1.335 6.55-2.66 9.823-3.992 2.916-1.187 5.826-2.389 8.75-3.56.487-.196.946-.396 1.566-.155 2.87 1.115 5.772 2.145 8.662 3.205.749.274 1.498.542 2.247.814l-.036.14c-2.69-.2-5.38-.397-8.07-.595l-.02.242 3.955 1.764-8.108 1.52-.026.236 11.397 3.305c-.322.173-.502.335-.703.369-1.157.191-1.823.775-1.996 2.006-.146 1.035-.502 2.042-.765 3.06l.148.083 12.664-8.672a20853.96 20853.96 0 0 1-3.498-5.923c.485.046.864.22 1.247.384 2.115.905 4.253 1.76 6.34 2.727 2.315 1.071 2.294 1.116 4.483-.16.125-.072.266-.116.39-.19.623-.368 1.243-.743 2.018-1.207-1.121-.415-2.026-.722-2.91-1.082M71.676 87.373H56.014c-.903 2.316-1.793 4.594-2.675 6.872-.164.422-.509.937-.384 1.257.12.31.738.427 1.14.623.217.106.436.204.658.299 1.113.474 2.227.946 3.535 1.5l-6.864 1.625-.068.289 23.116 8.967-1.568 1.825c.03.07.06.139.088.209 2.02 0 4.038-.017 6.056.005 2.241.024 4.49-.014 6.72.16 1.429.11 2.401-.3 3.12-1.517.59-1 1.263-1.953 1.9-2.926.172-.264.346-.525.509-.772l-18.654-8.154-.967-10.262" fill="#ffffff"/><path d="M86.563 97.813c-3.129-.982-6.248-1.991-9.37-2.992-.085.068-.17.14-.256.21.175.248.3.571.534.727.396.264.859.433 1.3.622 2.904 1.24 5.81 2.474 8.715 3.708.986.42 1.973.836 3.05 1.293l1.173-6.211c-1.556.962-2.886 1.808-4.246 2.601-.233.136-.626.128-.9.042" fill="#ffffff"/><path d="M311.467 57.101l4.349 6.712-5.01 22.943c-.467 2.14 1.4 3.613 4.102 3.62l34.257.096c2.703.008 5.208-1.453 5.608-3.266l2.916-13.341-8.297-.023h-.004l-3.957-.01c-.056-.001-.112.007-.168.01h-8.651l5.137 5.652-.898 4.112-14.566-.04 4.306-19.725 26.821.074c1.348.004 2.605-.73 2.801-1.635l1.102-5.045c-18.648-.047-31.334-.082-49.848-.134zm154.149.048l-.7 3.233c-.396 1.814-2.901 3.278-5.604 3.276l-9.672-.009-5.437 25.103c-.195.907-1.448 1.643-2.798 1.642l-12.328-.012 5.79-26.746-14.566-.013-4.43-6.518 49.745.044zm-224.885 6.55l-14.512-.04-4.415 20.223 14.51.04zm15.476-3.191l-5.83 26.686c-.394 1.814-2.9 3.274-5.604 3.267l-34.272-.095c-2.701-.007-4.569-1.48-4.174-3.294l5.084-23.269c.865-4.126 2.876-6.7 6.317-6.69 12.744.035 20.103.062 34.308.102 2.703.007 4.57 1.484 4.17 3.293zm-57.163-3.289l7.641.021-6.901 31.604c-.197.905-1.453 1.638-2.803 1.636l-14.308-.041c-1.852-.005-3.398-.712-3.978-1.83l-10.347-19.827-4.363 19.967c-.196.906-1.452 1.64-2.801 1.636l-10.09-.028 5.8-26.55-4.35-6.713 25.54.072 11.337 21.728 4.02-18.405c.395-1.813 2.906-3.273 5.603-3.265zm213.63.013l-.746 3.402c-.399 1.814-2.905 3.274-5.61 3.267l-22.407-.062-1.083 4.959c-.201.907.736 1.645 2.085 1.65l18.986.052-.746 3.402c-.398 1.809-2.905 3.274-5.608 3.267L381 77.123l-1.081 4.96c-.203.905.734 1.644 2.084 1.648l24.861.069-.741 3.404c-.4 1.812-2.907 3.273-5.608 3.265l-32.155-.09c-2.703-.006-4.57-1.48-4.175-3.291l5.079-23.27-4.35-6.713c17.785.049 30.4.084 47.76.127zm-119.278 6.656l-14.493-.04-4.343 19.876 14.493.04zm15.516-3.367l-5.83 26.688c-.4 1.812-2.906 3.272-5.609 3.265l-39.145-.11 5.801-26.552-4.35-6.713 44.957.129c2.701.008 4.57 1.485 4.176 3.293M313.721 120.032c-2.114 0-3.818-.605-5.109-1.814-1.292-1.21-1.937-2.822-1.937-4.835 0-2.44.818-4.519 2.456-6.238 1.636-1.719 3.634-2.578 5.993-2.578 2.725 0 4.656.945 5.797 2.837l-2.41 1.83c-.712-1.22-1.83-1.83-3.356-1.83-1.546 0-2.802.574-3.767 1.723-.967 1.15-1.45 2.527-1.45 4.134 0 1.241.382 2.207 1.146 2.897.761.691 1.741 1.038 2.943 1.038 1.321 0 2.441-.529 3.354-1.587l1.77 2.136c-1.444 1.525-3.254 2.287-5.43 2.287M328.973 117.196c1.423 0 2.608-.585 3.554-1.754.945-1.17 1.417-2.537 1.417-4.103 0-1.22-.34-2.18-1.02-2.883-.681-.701-1.623-1.052-2.823-1.052-1.424 0-2.608.59-3.553 1.77-.945 1.18-1.419 2.541-1.419 4.087 0 1.22.342 2.181 1.022 2.883.681.7 1.621 1.052 2.822 1.052zm-.092 2.836c-2.196 0-3.925-.61-5.185-1.83-1.261-1.22-1.89-2.816-1.89-4.789 0-2.358.8-4.423 2.409-6.192 1.605-1.77 3.598-2.654 5.978-2.654 2.196 0 3.924.616 5.186 1.845 1.261 1.232 1.892 2.833 1.892 4.805 0 2.359-.804 4.418-2.41 6.177-1.606 1.76-3.6 2.638-5.98 2.638M359.995 119.666h-3.203l2.075-9.395c.081-.406.121-.71.121-.915 0-.59-.224-1.062-.67-1.418-.449-.355-.987-.534-1.617-.534-1.16 0-2.32.661-3.478 1.983l-2.256 10.279h-3.204l2.074-9.395c.083-.446.123-.803.123-1.067-.021-.508-.235-.935-.641-1.282-.407-.345-.966-.518-1.678-.518-1.098 0-2.248.661-3.446 1.983l-2.259 10.279h-3.201l3.262-14.733h3.204l-.457 2.013c1.423-1.586 2.939-2.38 4.545-2.38 1.219 0 2.175.317 2.867.946.692.632 1.037 1.18 1.037 1.648v.06c1.423-1.77 3.142-2.653 5.155-2.653 1.119 0 2.075.33 2.867.992.793.66 1.19 1.57 1.19 2.729 0 .306-.05.712-.152 1.22l-2.258 10.158M372.197 117.196c1.402 0 2.566-.585 3.492-1.754.924-1.17 1.387-2.548 1.387-4.134 0-1.178-.34-2.124-1.021-2.836-.682-.712-1.551-1.068-2.608-1.068-1.506 0-2.798.702-3.874 2.104l-1.25 5.705c.345.59.858 1.068 1.54 1.433.68.366 1.457.55 2.334.55zm.487 2.836c-2.197 0-3.823-.823-4.88-2.47l-1.71 7.717h-3.2l4.513-20.346h3.202l-.457 1.952c1.301-1.544 2.847-2.318 4.637-2.318 1.688 0 3.051.539 4.087 1.617 1.037 1.078 1.556 2.573 1.556 4.485 0 2.44-.712 4.61-2.135 6.511-1.425 1.901-3.294 2.852-5.613 2.852M385.037 104.933h3.204l-2.042 9.212c-.104.448-.154.763-.154.946 0 .712.248 1.24.747 1.586.499.345 1.164.519 1.999.519 1.281 0 2.592-.672 3.934-2.013l2.258-10.25h3.202l-3.262 14.733h-3.206l.459-2.013c-1.668 1.585-3.347 2.379-5.032 2.379-1.385 0-2.483-.331-3.295-.99-.814-.661-1.221-1.571-1.221-2.73 0-.306.05-.713.152-1.221l2.257-10.158M404.347 120.032c-1.22 0-2.183-.25-2.883-.746-.703-.5-1.052-1.247-1.052-2.242 0-.286.03-.6.09-.946l1.862-8.39h-2.441l.641-2.775h2.439l.885-4.026h3.203l-.884 4.026h2.99l-.642 2.776h-2.99l-1.677 7.595a2.92 2.92 0 0 0-.061.58c0 .874.488 1.312 1.465 1.312.508 0 .915-.131 1.22-.397l.184 2.562c-.57.447-1.353.67-2.35.67M412.948 111.094h8.45c.02-.06.029-.201.029-.425 0-.998-.336-1.826-1.006-2.487-.67-.66-1.628-.991-2.868-.991-1.138 0-2.14.386-3.005 1.158-.864.774-1.399 1.689-1.6 2.745zm3.873 8.938c-2.297 0-4.113-.589-5.445-1.769-1.332-1.18-1.999-2.786-1.999-4.82 0-2.44.811-4.528 2.427-6.268 1.617-1.738 3.615-2.608 5.993-2.608 1.932 0 3.498.595 4.698 1.785 1.2 1.19 1.8 2.77 1.8 4.742a8.82 8.82 0 0 1-.275 2.258h-11.408c0 .02-.005.096-.016.23-.01.132-.015.227-.015.288 0 .916.398 1.735 1.19 2.456.793.723 1.89 1.083 3.294 1.083 1.566 0 2.878-.406 3.935-1.22l1.008 2.227c-1.465 1.078-3.195 1.616-5.187 1.616M428.99 119.666h-3.2l3.262-14.733h3.204l-.49 2.074c1.445-1.606 3.225-2.409 5.34-2.409l-.702 3.202c-.347-.102-.783-.152-1.312-.152-.73 0-1.448.194-2.15.579a5.727 5.727 0 0 0-1.754 1.465l-2.197 9.974M442.473 120.032c-2.868 0-5.084-.874-6.649-2.623l1.89-2.226c.447.61 1.146 1.148 2.091 1.616a6.552 6.552 0 0 0 2.943.701c.793 0 1.435-.192 1.921-.579.488-.385.732-.854.732-1.404 0-.507-.396-.96-1.189-1.357a14.55 14.55 0 0 0-2.608-.99 7.093 7.093 0 0 1-2.608-1.374c-.793-.65-1.188-1.463-1.188-2.44 0-1.322.521-2.45 1.57-3.385 1.046-.935 2.475-1.404 4.286-1.404 1.219 0 2.364.224 3.43.67 1.069.448 1.917 1.028 2.549 1.74l-1.71 2.104c-.365-.508-.965-.96-1.8-1.357a5.886 5.886 0 0 0-2.561-.594c-.793 0-1.424.162-1.89.488-.47.325-.703.742-.703 1.25 0 .387.26.728.778 1.021.518.296 1.154.57 1.907.825.752.254 1.504.533 2.257.839.751.304 1.388.752 1.906 1.34.518.592.777 1.294.777 2.106 0 1.423-.553 2.619-1.661 3.585-1.11.966-2.598 1.448-4.47 1.448" fill="#ffffff"/></svg>