<?xml version="1.0" encoding="utf-8"?>
<!-- Generator: Adobe Illustrator 23.0.2, SVG Export Plug-In . SVG Version: 6.00 Build 0)  -->
<svg version="1.1" id="Слой_1" xmlns="http://www.w3.org/2000/svg" xmlns:xlink="http://www.w3.org/1999/xlink" x="0px" y="0px"
	 viewBox="0 0 466.1 136" style="enable-background:new 0 0 466.1 136;" xml:space="preserve">
<style type="text/css">
	.st0{fill:#100F0D;stroke:#FFFFFF;}
	.st1{fill:#FFFFFF;}
</style>
<path class="st0" d="M134.2,20.3c-3.5-2.9-7.3-5.6-11.2-8l-11.8,8.3l-0.1-0.1l6.8-11.1c-0.8-0.4-1.7-0.8-2.5-1.2
	c-4.3-2.1-8.8-3.7-13.3-5c-0.4-0.1-0.7,0-0.9,0.3c-1.5,1.7-3.1,3.3-4.7,5c0-0.6,0-1,0-1.5c0-1.5,0-3.1,0.1-4.6
	c0-0.6-0.3-0.7-0.7-0.8c-1.7-0.2-3.3-0.5-5-0.6c-4.4-0.2-8.9-0.6-13.4-0.6C66,0.6,54.9,2.4,44.3,6.9c-12.2,5.1-22,13.2-29.8,23.8
	c-2.3,3.2-4.3,6.5-6.1,10C3.1,50.9,0.9,63.4,0.5,66.5c0,0.3,0,0.5,0,0.9h28.4c-0.4,0.4-0.7,0.7-1,1c-1.5,1.4-2.9,2.7-4.4,4.1
	c-3.1,2.9-6.3,5.9-9.4,8.8c-0.9,0.8-1.2,1.7-1.2,2.7c0,2.5-0.2,4.9,0,7.4c0.4,4.7,1.6,9.2,3.5,13.5c2.9,6.5,7,12.1,12.1,16.9
	c4.5,4.3,9.5,8,15.4,10.3c2.6,1,5.3,1.8,8,2.2c20,3.4,33.1-1.3,37.5-3.3c2.1-0.9,4.1-2,5.8-3.6c0.1-0.1,0.2-0.2,0.2-0.2
	c0.1-0.1,0.2-0.3,0.4-0.5c-6.9-1.4-13.6-3.3-19.9-6.7c0.5,2.7,1.5,4.9,3.4,6.7c-0.8-0.1-1.5-0.2-2.3-0.4c-6.2-1.5-11.9-4.2-17.5-7.2
	l-1-0.6c0.5,1.4,1.2,2.5,2.1,3.6c0.8,1.1,1.7,2.1,2.7,3.3c-1-0.4-1.8-0.7-2.5-1c-3.7-1.5-7.3-3.3-10.8-5.5c-2.7-1.7-5.2-3.7-7.3-6.2
	c-1.4-1.8-2.6-3.6-3.2-5.8c-0.7-2.8-0.6-5.4,0.3-8.1c0.5-1.3,1.8-5.5,7.5-7.7l-4.2,12.7c7.5,2.4,14.9,4.8,22.3,7.2l-2,4.7
	c1.6,0,3.2,0,4.7,0c3.9-0.1,7.8-0.2,11.7-0.2c3.9-0.1,7.7-0.1,11.6-0.2c0.2,0,0.5-0.1,0.7-0.3c2.6-3.4,5.2-6.8,7.8-10.2
	c0,0,0-0.1,0-0.2c-1.3-0.6-2.6-1.2-3.9-1.8c-0.6-0.2-0.8-0.6-0.8-1.1c-0.1-2-0.2-3.9-0.3-5.9c-0.1-1.4-0.2-2.7-0.3-4.2
	c-2.5,1.4-4.9,2.7-7.3,3.9c-0.2,0.1-0.5,0.2-0.7,0.1c-2.8-0.9-5.6-1.8-8.5-2.7c-0.3-0.1-0.6-0.2-0.6-0.7c0.1-1.7,0-3.4,0.1-5.1
	c0-0.2,0.2-0.5,0.4-0.6c1.7-0.8,3.3-1.6,5-2.4c1.1-0.5,2.2-0.9,3.2-1.5c0.8-0.5,1.5,0,2.2,0.2c2.2,0.5,4.4,1.2,6.7,1.7
	c1,0.3,2,0.5,3,0.7c0.7,0.1,0.7,0.5,0.6,1c-0.3,1.8-0.6,3.7-1,5.5c-0.1,0.6-0.2,1.1-0.3,1.8c4.4-1.3,8.7-2.6,12.9-3.9
	c0.4-0.1,0.8-0.4,1-0.6c2.1-1.9,4.6-2.9,7.3-3.2c2-0.3,3.8-1,5.6-2.2c4-2.6,8.1-5.1,12.2-7.7c0.2-0.1,0.4-0.3,0.7-0.5L111,63.8
	l3.7-4.7L66.4,35.1c12.2-4,26.8-2,35.8,12.1c2.5-1.6,5-3.2,7.5-4.8c4.1-2.6,8.3-5.2,12.4-7.8c2.5-1.5,5-3,7.4-4.6
	c2.8-1.8,5.5-3.6,8.3-5.4c0.2-0.1,0.5-0.2,0.7-0.3V24C137.1,22.8,135.7,21.6,134.2,20.3"/>
<path class="st1" d="M121.7,74.6c-2.2-0.9-4.4-1.8-6.6-2.7c-3.1-1.3-6.2-2.5-9.3-3.8c-0.7-0.3-1.4-0.6-2.2-0.4
	c-1,0.2-2.1,0.3-3.1,0.4c-2.3,0.3-4.6,0.5-7,0.9c-0.4,0.1-0.5,0-0.6-0.4c-0.3-0.9-0.6-1.9-0.9-2.9c-1.1-0.1-2.2-0.3-3.4-0.4
	c-0.2,0-0.5-0.1-0.6-0.2c-0.7-0.9-1.3-1.9-1.9-2.9c-0.6-0.9-1.2-1.7-1.9-2.6c0.3,0,0.4-0.1,0.6,0c1.8,0.4,3.7,0.8,5.5,1.3
	c1.9,0.4,3.7,0.9,5.6,1.3c1.2,0.3,2.4,0.5,3.5,0.8c0.7,0.2,1.3,0.3,2-0.2c0.7-0.6,1.5-1.1,2.3-1.7c-1.2-0.6-2.3-1.1-3.4-1.6
	c-3.4-1.7-6.9-3.5-10.3-5.2c-4-2-8-4-12-5.9c-6.6-3.1-13.3-6.1-20-9.2c-0.2-0.1-0.6-0.1-0.8,0c-5.9,3.5-10.8,8.1-14,14.2
	c-2.8,5.3-3.9,11-3.7,17c0,1.2,0.4,2,1.4,2.7c2.6,1.9,5.1,4,7.7,6c0.8,0.6,1.6,1.3,2.6,2l0.5-23.3l7.2,6.6L61.3,53
	c7,4.2,14,8.3,21,12.5l-9.8,0.8c0,0.3,0,0.4,0,0.6c0.1,1.7,0.3,3.4,0.4,5.1c0.2,2.6,0.4,5.2,0.6,7.9c0,0.4,0.2,0.5,0.6,0.3
	c3.3-1.3,6.6-2.7,9.8-4c2.9-1.2,5.8-2.4,8.8-3.6c0.5-0.2,0.9-0.4,1.6-0.2c2.9,1.1,5.8,2.1,8.7,3.2c0.7,0.3,1.5,0.5,2.2,0.8l0,0.1
	c-2.7-0.2-5.4-0.4-8.1-0.6l0,0.2l4,1.8l-8.1,1.5l0,0.2l11.4,3.3c-0.3,0.2-0.5,0.3-0.7,0.4c-1.2,0.2-1.8,0.8-2,2
	c-0.1,1-0.5,2-0.8,3.1l0.1,0.1l12.7-8.7c-1.2-2-2.3-3.9-3.5-5.9c0.5,0,0.9,0.2,1.2,0.4c2.1,0.9,4.3,1.8,6.3,2.7
	c2.3,1.1,2.3,1.1,4.5-0.2c0.1-0.1,0.3-0.1,0.4-0.2c0.6-0.4,1.2-0.7,2-1.2C123.5,75.3,122.6,75,121.7,74.6 M72.2,87.9H56.5
	c-0.9,2.3-1.8,4.6-2.7,6.9c-0.2,0.4-0.5,0.9-0.4,1.3c0.1,0.3,0.7,0.4,1.1,0.6c0.2,0.1,0.4,0.2,0.7,0.3c1.1,0.5,2.2,0.9,3.5,1.5
	l-6.9,1.6l-0.1,0.3l23.1,9l-1.6,1.8c0,0.1,0.1,0.1,0.1,0.2c2,0,4,0,6.1,0c2.2,0,4.5,0,6.7,0.2c1.4,0.1,2.4-0.3,3.1-1.5
	c0.6-1,1.3-2,1.9-2.9c0.2-0.3,0.3-0.5,0.5-0.8l-18.7-8.2L72.2,87.9"/>
<path class="st1" d="M87.1,98.3c-3.1-1-6.2-2-9.4-3c-0.1,0.1-0.2,0.1-0.3,0.2c0.2,0.2,0.3,0.6,0.5,0.7c0.4,0.3,0.9,0.4,1.3,0.6
	c2.9,1.2,5.8,2.5,8.7,3.7c1,0.4,2,0.8,3.1,1.3l1.2-6.2c-1.6,1-2.9,1.8-4.2,2.6C87.7,98.4,87.3,98.4,87.1,98.3"/>
<path class="st1" d="M312,57.6l4.3,6.7l-5,22.9c-0.5,2.1,1.4,3.6,4.1,3.6l34.3,0.1c2.7,0,5.2-1.5,5.6-3.3l2.9-13.3l-8.3,0h0l-4,0
	c-0.1,0-0.1,0-0.2,0h-8.7l5.1,5.7l-0.9,4.1l-14.6,0l4.3-19.7l26.8,0.1c1.3,0,2.6-0.7,2.8-1.6l1.1-5C343.2,57.7,330.5,57.7,312,57.6
	L312,57.6z M466.1,57.6l-0.7,3.2c-0.4,1.8-2.9,3.3-5.6,3.3l-9.7,0l-5.4,25.1c-0.2,0.9-1.4,1.6-2.8,1.6l-12.3,0l5.8-26.7l-14.6,0
	l-4.4-6.5L466.1,57.6L466.1,57.6z M241.2,64.2l-14.5,0l-4.4,20.2l14.5,0L241.2,64.2z M256.7,61l-5.8,26.7c-0.4,1.8-2.9,3.3-5.6,3.3
	L211,90.9c-2.7,0-4.6-1.5-4.2-3.3l5.1-23.3c0.9-4.1,2.9-6.7,6.3-6.7c12.7,0,20.1,0.1,34.3,0.1C255.2,57.7,257.1,59.2,256.7,61
	L256.7,61z M199.5,57.7l7.6,0l-6.9,31.6c-0.2,0.9-1.5,1.6-2.8,1.6l-14.3,0c-1.9,0-3.4-0.7-4-1.8l-10.3-19.8l-4.4,20
	c-0.2,0.9-1.5,1.6-2.8,1.6l-10.1,0l5.8-26.6l-4.4-6.7l25.5,0.1l11.3,21.7l4-18.4C194.3,59.2,196.8,57.7,199.5,57.7L199.5,57.7z
	 M413.2,57.7l-0.7,3.4c-0.4,1.8-2.9,3.3-5.6,3.3l-22.4-0.1l-1.1,5c-0.2,0.9,0.7,1.6,2.1,1.7l19,0.1l-0.7,3.4
	c-0.4,1.8-2.9,3.3-5.6,3.3l-16.5,0l-1.1,5c-0.2,0.9,0.7,1.6,2.1,1.6l24.9,0.1l-0.7,3.4c-0.4,1.8-2.9,3.3-5.6,3.3l-32.2-0.1
	c-2.7,0-4.6-1.5-4.2-3.3l5.1-23.3l-4.4-6.7C383.2,57.7,395.8,57.7,413.2,57.7z M293.9,64.4l-14.5,0l-4.3,19.9l14.5,0L293.9,64.4z
	 M309.4,61l-5.8,26.7c-0.4,1.8-2.9,3.3-5.6,3.3l-39.1-0.1l5.8-26.6l-4.4-6.7l45,0.1C307.9,57.7,309.8,59.2,309.4,61 M314.2,120.5
	c-2.1,0-3.8-0.6-5.1-1.8c-1.3-1.2-1.9-2.8-1.9-4.8c0-2.4,0.8-4.5,2.5-6.2c1.6-1.7,3.6-2.6,6-2.6c2.7,0,4.7,0.9,5.8,2.8l-2.4,1.8
	c-0.7-1.2-1.8-1.8-3.4-1.8c-1.5,0-2.8,0.6-3.8,1.7c-1,1.2-1.5,2.5-1.5,4.1c0,1.2,0.4,2.2,1.1,2.9c0.8,0.7,1.7,1,2.9,1
	c1.3,0,2.4-0.5,3.4-1.6l1.8,2.1C318.2,119.8,316.4,120.5,314.2,120.5 M329.5,117.7c1.4,0,2.6-0.6,3.6-1.8c0.9-1.2,1.4-2.5,1.4-4.1
	c0-1.2-0.3-2.2-1-2.9c-0.7-0.7-1.6-1.1-2.8-1.1c-1.4,0-2.6,0.6-3.6,1.8s-1.4,2.5-1.4,4.1c0,1.2,0.3,2.2,1,2.9
	C327.3,117.3,328.3,117.7,329.5,117.7L329.5,117.7z M329.4,120.5c-2.2,0-3.9-0.6-5.2-1.8c-1.3-1.2-1.9-2.8-1.9-4.8
	c0-2.4,0.8-4.4,2.4-6.2c1.6-1.8,3.6-2.7,6-2.7c2.2,0,3.9,0.6,5.2,1.8c1.3,1.2,1.9,2.8,1.9,4.8c0,2.4-0.8,4.4-2.4,6.2
	C333.8,119.7,331.8,120.5,329.4,120.5 M360.5,120.2h-3.2l2.1-9.4c0.1-0.4,0.1-0.7,0.1-0.9c0-0.6-0.2-1.1-0.7-1.4
	c-0.4-0.4-1-0.5-1.6-0.5c-1.2,0-2.3,0.7-3.5,2l-2.3,10.3h-3.2l2.1-9.4c0.1-0.4,0.1-0.8,0.1-1.1c0-0.5-0.2-0.9-0.6-1.3
	c-0.4-0.3-1-0.5-1.7-0.5c-1.1,0-2.2,0.7-3.4,2l-2.3,10.3h-3.2l3.3-14.7h3.2l-0.5,2c1.4-1.6,2.9-2.4,4.5-2.4c1.2,0,2.2,0.3,2.9,0.9
	c0.7,0.6,1,1.2,1,1.6v0.1c1.4-1.8,3.1-2.7,5.2-2.7c1.1,0,2.1,0.3,2.9,1c0.8,0.7,1.2,1.6,1.2,2.7c0,0.3,0,0.7-0.2,1.2L360.5,120.2
	 M372.7,117.7c1.4,0,2.6-0.6,3.5-1.8c0.9-1.2,1.4-2.5,1.4-4.1c0-1.2-0.3-2.1-1-2.8c-0.7-0.7-1.6-1.1-2.6-1.1c-1.5,0-2.8,0.7-3.9,2.1
	l-1.3,5.7c0.3,0.6,0.9,1.1,1.5,1.4C371,117.5,371.8,117.7,372.7,117.7L372.7,117.7z M373.2,120.5c-2.2,0-3.8-0.8-4.9-2.5l-1.7,7.7
	h-3.2l4.5-20.3h3.2l-0.5,2c1.3-1.5,2.8-2.3,4.6-2.3c1.7,0,3.1,0.5,4.1,1.6c1,1.1,1.6,2.6,1.6,4.5c0,2.4-0.7,4.6-2.1,6.5
	C377.4,119.6,375.5,120.5,373.2,120.5 M385.5,105.4h3.2l-2,9.2c-0.1,0.4-0.2,0.8-0.2,0.9c0,0.7,0.2,1.2,0.7,1.6
	c0.5,0.3,1.2,0.5,2,0.5c1.3,0,2.6-0.7,3.9-2l2.3-10.3h3.2l-3.3,14.7h-3.2l0.5-2c-1.7,1.6-3.3,2.4-5,2.4c-1.4,0-2.5-0.3-3.3-1
	c-0.8-0.7-1.2-1.6-1.2-2.7c0-0.3,0-0.7,0.2-1.2L385.5,105.4 M404.8,120.5c-1.2,0-2.2-0.3-2.9-0.7c-0.7-0.5-1.1-1.2-1.1-2.2
	c0-0.3,0-0.6,0.1-0.9l1.9-8.4h-2.4l0.6-2.8h2.4l0.9-4h3.2l-0.9,4h3l-0.6,2.8h-3l-1.7,7.6c0,0.2-0.1,0.4-0.1,0.6
	c0,0.9,0.5,1.3,1.5,1.3c0.5,0,0.9-0.1,1.2-0.4l0.2,2.6C406.6,120.3,405.8,120.5,404.8,120.5 M413.4,111.6h8.5c0-0.1,0-0.2,0-0.4
	c0-1-0.3-1.8-1-2.5c-0.7-0.7-1.6-1-2.9-1c-1.1,0-2.1,0.4-3,1.2C414.2,109.6,413.6,110.5,413.4,111.6L413.4,111.6z M417.3,120.5
	c-2.3,0-4.1-0.6-5.4-1.8s-2-2.8-2-4.8c0-2.4,0.8-4.5,2.4-6.3c1.6-1.7,3.6-2.6,6-2.6c1.9,0,3.5,0.6,4.7,1.8s1.8,2.8,1.8,4.7
	c0,0.8-0.1,1.5-0.3,2.3h-11.4c0,0,0,0.1,0,0.2c0,0.1,0,0.2,0,0.3c0,0.9,0.4,1.7,1.2,2.5c0.8,0.7,1.9,1.1,3.3,1.1
	c1.6,0,2.9-0.4,3.9-1.2l1,2.2C421,120,419.3,120.5,417.3,120.5 M429.5,120.2h-3.2l3.3-14.7h3.2l-0.5,2.1c1.4-1.6,3.2-2.4,5.3-2.4
	l-0.7,3.2c-0.3-0.1-0.8-0.2-1.3-0.2c-0.7,0-1.4,0.2-2.1,0.6c-0.7,0.4-1.3,0.9-1.8,1.5L429.5,120.2 M443,120.5
	c-2.9,0-5.1-0.9-6.6-2.6l1.9-2.2c0.4,0.6,1.1,1.1,2.1,1.6c0.9,0.5,1.9,0.7,2.9,0.7c0.8,0,1.4-0.2,1.9-0.6c0.5-0.4,0.7-0.9,0.7-1.4
	c0-0.5-0.4-1-1.2-1.4c-0.8-0.4-1.7-0.7-2.6-1c-1-0.3-1.8-0.7-2.6-1.4c-0.8-0.7-1.2-1.5-1.2-2.4c0-1.3,0.5-2.4,1.6-3.4
	c1-0.9,2.5-1.4,4.3-1.4c1.2,0,2.4,0.2,3.4,0.7c1.1,0.4,1.9,1,2.5,1.7l-1.7,2.1c-0.4-0.5-1-1-1.8-1.4c-0.8-0.4-1.7-0.6-2.6-0.6
	c-0.8,0-1.4,0.2-1.9,0.5c-0.5,0.3-0.7,0.7-0.7,1.3c0,0.4,0.3,0.7,0.8,1c0.5,0.3,1.2,0.6,1.9,0.8c0.8,0.3,1.5,0.5,2.3,0.8
	c0.8,0.3,1.4,0.8,1.9,1.3c0.5,0.6,0.8,1.3,0.8,2.1c0,1.4-0.6,2.6-1.7,3.6C446.3,120,444.8,120.5,443,120.5"/>
</svg>
