<?xml version="1.0" encoding="utf-8"?>
<!-- Generator: Adobe Illustrator 23.0.2, SVG Export Plug-In . SVG Version: 6.00 Build 0)  -->
<svg version="1.1" id="Capa_1" xmlns="http://www.w3.org/2000/svg" xmlns:xlink="http://www.w3.org/1999/xlink" x="0px" y="0px"
	 viewBox="0 0 493.4 443.7" style="enable-background:new 0 0 493.4 443.7;" xml:space="preserve">
<g>
	<path d="M300.2,282c-24.3-13.3-52.3-13.6-76-3.3l-80.6-128.4c7-6.3,13.1-13.9,17.8-22.6c4.8-8.8,7.9-17.9,9.4-27.4l151.4-1.2
		c3.9,25.5,19.3,49.1,43.7,62.4c41.6,22.8,94.1,7.5,116.9-34.2s7.5-94.1-34.2-116.9s-94.1-7.5-116.9,34.2c-4.8,8.8-7.9,18-9.4,27.4
		l-151.3,1.3c-3.9-25.6-19.3-49.1-43.7-62.4C85.8-11.8,33.4,3.5,10.6,45.1S3.2,139.2,44.8,162c24.4,13.4,52.5,13.6,76.3,3.1
		l80.5,128.3c-7.1,6.4-13.4,14-18.2,22.8c-22.8,41.6-7.5,94.1,34.2,116.9c41.7,22.8,94.1,7.5,116.9-34.2
		C357.2,357.3,341.8,304.8,300.2,282z M435.7,34.4c28.6,15.7,39.1,51.6,23.5,80.2c-15.7,28.6-51.6,39.1-80.2,23.5
		s-39.1-51.6-23.5-80.2S407.2,18.8,435.7,34.4z M57.8,138.4c-28.6-15.7-39.1-51.6-23.5-80.2S85.9,19,114.5,34.7s39.1,51.6,23.5,80.2
		C122.3,143.5,86.3,154,57.8,138.4z M230.5,409.3c-28.6-15.7-39.1-51.6-23.5-80.2s51.6-39.1,80.2-23.5
		c28.6,15.7,39.1,51.6,23.5,80.2S259.1,424.9,230.5,409.3z" style="fill:white"/>
</g>
<circle cx="86.2" cy="86.5" r="26.7" style="fill:white"/>
<circle cx="407.4" cy="86.5" r="26.7" style="fill:white"/>
<circle cx="258.9" cy="357.4" r="26.7" style="fill:white"/>
</svg>
